<svg width="19" height="19" viewBox="0 0 19 19" fill="none" xmlns="http://www.w3.org/2000/svg">
<path d="M15.5992 15.5992C12.1752 19.0233 6.62374 19.0233 3.19972 15.5992C-0.224308 12.1752 -0.224308 6.62377 3.19972 3.19975C6.62374 -0.224276 12.1752 -0.224276 15.5992 3.19975C19.0232 6.62377 19.0232 12.1752 15.5992 15.5992Z" fill="#828282"/>
<path d="M12.41 6.21034L6.21028 12.4101M6.21028 6.38891L12.41 12.5887M15.5992 15.5992C12.1752 19.0233 6.62374 19.0233 3.19972 15.5992C-0.224308 12.1752 -0.224308 6.62377 3.19972 3.19975C6.62374 -0.224276 12.1752 -0.224276 15.5992 3.19975C19.0232 6.62377 19.0232 12.1752 15.5992 15.5992Z" stroke="#E5E5E5"/>
</svg>
